<svg width="64" height="64" xmlns="http://www.w3.org/2000/svg">
  <!-- Background -->
  <circle cx="32" cy="32" r="30" fill="#f5f5f5" stroke="#e0e0e0" stroke-width="2"/>
  
  <!-- Wheels -->
  <circle cx="16" cy="42" r="10" fill="none" stroke="#333" stroke-width="2"/>
  <circle cx="48" cy="42" r="10" fill="none" stroke="#333" stroke-width="2"/>
  
  <!-- Wheel spokes -->
  <line x1="16" y1="32" x2="16" y2="52" stroke="#555" stroke-width="1"/>
  <line x1="6" y1="42" x2="26" y2="42" stroke="#555" stroke-width="1"/>
  <line x1="9" y1="35" x2="23" y2="49" stroke="#555" stroke-width="1"/>
  <line x1="9" y1="49" x2="23" y2="35" stroke="#555" stroke-width="1"/>
  
  <line x1="48" y1="32" x2="48" y2="52" stroke="#555" stroke-width="1"/>
  <line x1="38" y1="42" x2="58" y2="42" stroke="#555" stroke-width="1"/>
  <line x1="41" y1="35" x2="55" y2="49" stroke="#555" stroke-width="1"/>
  <line x1="41" y1="49" x2="55" y2="35" stroke="#555" stroke-width="1"/>
  
  <!-- Frame -->
  <line x1="16" y1="42" x2="32" y2="27" stroke="#4CAF50" stroke-width="3"/>
  <line x1="32" y1="27" x2="48" y2="42" stroke="#4CAF50" stroke-width="3"/>
  <line x1="48" y1="42" x2="38" y2="42" stroke="#4CAF50" stroke-width="3"/>
  <line x1="16" y1="42" x2="32" y2="42" stroke="#4CAF50" stroke-width="3"/>
  
  <!-- Seat -->
  <line x1="32" y1="27" x2="27" y2="22" stroke="#4CAF50" stroke-width="2"/>
  <ellipse cx="25" cy="21" rx="3" ry="1.5" fill="#333"/>
  
  <!-- Handlebars -->
  <line x1="48" y1="42" x2="48" y2="32" stroke="#4CAF50" stroke-width="2"/>
  <path d="M 48 32 C 48 29, 51 29, 52 29" stroke="#4CAF50" stroke-width="2" fill="none"/>
  <path d="M 48 32 C 48 29, 45 29, 44 29" stroke="#4CAF50" stroke-width="2" fill="none"/>
  
  <!-- Pedals -->
  <circle cx="32" cy="42" r="3" fill="#4CAF50" stroke="#333" stroke-width="1"/>
  <line x1="32" y1="39" x2="29" y2="35" stroke="#333" stroke-width="2"/>
  <line x1="32" y1="45" x2="35" y2="49" stroke="#333" stroke-width="2"/>
  <rect x="27" y="33" width="4" height="2" fill="#333"/>
  <rect x="33" y="49" width="4" height="2" fill="#333"/>
</svg> 