<svg width="64" height="64" xmlns="http://www.w3.org/2000/svg">
  <!-- Background -->
  <circle cx="32" cy="32" r="30" fill="#f5f5f5" stroke="#e0e0e0" stroke-width="2"/>
  
  <!-- Game Controller Body -->
  <path d="M12,28 C10,28 8,30 8,32 C8,34 8,42 10,44 C12,46 16,46 18,44 C20,42 24,36 28,34 L36,34 C40,36 44,42 46,44 C48,46 52,46 54,44 C56,42 56,34 56,32 C56,30 54,28 52,28 L12,28 Z" 
        fill="#3F51B5" stroke="#303F9F" stroke-width="1"/>
  
  <!-- D-Pad -->
  <rect x="16" y="30" width="10" height="4" rx="1" fill="#0D47A1"/>
  <rect x="19" y="27" width="4" height="10" rx="1" fill="#0D47A1"/>
  
  <!-- Buttons -->
  <circle cx="45" cy="33" r="2.5" fill="#E53935"/>
  <circle cx="49" cy="29" r="2.5" fill="#43A047"/>
  <circle cx="41" cy="29" r="2.5" fill="#1E88E5"/>
  <circle cx="45" cy="25" r="2.5" fill="#FDD835"/>
  
  <!-- Shoulder Buttons -->
  <rect x="10" y="24" width="8" height="4" rx="2" fill="#424242"/>
  <rect x="46" y="24" width="8" height="4" rx="2" fill="#424242"/>
  
  <!-- Start/Select Buttons -->
  <rect x="29" y="30" width="3" height="2" rx="1" fill="#9E9E9E"/>
  <rect x="33" y="30" width="3" height="2" rx="1" fill="#9E9E9E"/>
  
  <!-- Highlights -->
  <path d="M12,28 C10,28 8,30 8,32 C8,32.5 8,34 8.2,35.5" stroke="white" stroke-width="0.5" fill="none" opacity="0.3"/>
  <circle cx="45" cy="33" r="2.5" stroke="white" stroke-width="0.5" fill="none" opacity="0.3"/>
  <circle cx="49" cy="29" r="2.5" stroke="white" stroke-width="0.5" fill="none" opacity="0.3"/>
  <circle cx="41" cy="29" r="2.5" stroke="white" stroke-width="0.5" fill="none" opacity="0.3"/>
  <circle cx="45" cy="25" r="2.5" stroke="white" stroke-width="0.5" fill="none" opacity="0.3"/>
</svg> 