<svg width="200" height="200" xmlns="http://www.w3.org/2000/svg">
  <!-- Background circle -->
  <circle cx="100" cy="100" r="98" fill="#4169E1" stroke="#FFD700" stroke-width="4"/>
  
  <!-- Zeus's head and beard -->
  <circle cx="100" cy="80" r="40" fill="#F5F5DC"/>
  <path d="M60 85 Q 100 150 140 85" fill="#F5F5DC"/>
  
  <!-- Zeus's crown/laurel wreath -->
  <path d="M70 50 Q 100 30 130 50" stroke="#FFD700" stroke-width="4" fill="none"/>
  <path d="M70 50 L 65 40 L 75 42" fill="#FFD700"/>
  <path d="M130 50 L 135 40 L 125 42" fill="#FFD700"/>
  
  <!-- Zeus's eyes -->
  <circle cx="85" cy="75" r="5" fill="#000"/>
  <circle cx="115" cy="75" r="5" fill="#000"/>
  
  <!-- Zeus's mouth -->
  <path d="M90 95 Q 100 100 110 95" stroke="#000" stroke-width="2" fill="none"/>
  
  <!-- Lightning bolt -->
  <path d="M120 130 L 100 170 L 110 160 L 80 200 L 100 150 L 90 155 L 110 130" fill="#FFD700"/>
  
  <!-- Text at bottom -->
  <text x="100" y="190" font-family="Cinzel, serif" font-size="16" font-weight="bold" text-anchor="middle" fill="#FFD700">ZEUS</text>
</svg> 